<?xml version="1.0" encoding="UTF-8"?>
<svg xmlns="http://www.w3.org/2000/svg" version="1.1" viewBox="0 0 1767.83 824.17">
  <!-- Generator: Adobe Illustrator 29.6.1, SVG Export Plug-In . SVG Version: 2.1.1 Build 9)  -->
  <defs>
    <style>
      .st0 {
        stroke-miterlimit: 10;
        stroke-width: 4px;
      }

      .st0, .st1 {
        fill: none;
        stroke: #fbb03b;
      }

      .st2 {
        opacity: .65;
      }

      .st3 {
        display: none;
      }

      .st1 {
        stroke-linecap: round;
        stroke-linejoin: round;
        stroke-width: 3px;
      }

      .st4 {
        fill: #a282c5;
      }
    </style>
  </defs>
  <g id="Layer_5" class="st3">
    <g class="st2">
      <rect class="st4" x="1510.82" y="31.53" width="105.63" height="774.23" rx="50" ry="50"/>
    </g>
    <g class="st2">
      <rect class="st4" x="151.08" y="30.53" width="105.63" height="774.23" rx="50" ry="50"/>
    </g>
  </g>
  <g id="Layer_3">
    <g class="st2">
      <path class="st4" d="M1470.24,804.76H297.29c-5.52,0-10-4.48-10-10V178.64c-6.09-7.53-17.45-11.85-29.33-15.85,12.43-3.81,23.62-8.2,29.33-15.13V40.53c0-5.52,4.48-10,10-10h1172.96c5.52,0,10,4.48,10,10,.76,59.23,1.13,133.56,1.24,218.02,0,2.37,51.19,5.12,51.19,7.73,0,3.01-51.17,5.84-51.18,7.71.14,151.91-.52,334.73-1.26,520.76,0,5.52-4.48,10-10,10Z"/>
    </g>
    <path class="st0" d="M302.08,93.41"/>
    <polyline class="st1" points="334.47 785.83 302 785.83 302 230.17"/>
    <g>
      <path class="st1" d="M301.97,105.99l4.47,22.16c2.95,14.62,13.89,26.32,28.27,30.25l16.08,4.39-16.08,4.39c-14.38,3.93-25.32,15.63-28.27,30.25l-4.47,22.16-4.47-22.16c-2.95-14.62-13.89-26.32-28.27-30.25l-16.08-4.39,16.08-4.39c14.38-3.93,25.32-15.63,28.27-30.25l4.47-22.16Z"/>
      <line class="st1" x1="253.15" y1="162.79" x2="243.21" y2="162.79"/>
      <line class="st1" x1="360.95" y1="162.79" x2="351" y2="162.79"/>
      <line class="st1" x1="301.97" y1="219.59" x2="301.97" y2="231.17"/>
      <line class="st1" x1="301.97" y1="94.41" x2="301.97" y2="105.99"/>
    </g>
    <polyline class="st1" points="1465.53 341.62 1465.53 785.83 556.17 785.83"/>
    <polyline class="st1" points="1418.53 52.03 1465.53 52.03 1465.53 190.72"/>
    <path class="st1" d="M1418.53,52.03"/>
    <polyline class="st1" points="302 93.41 302 52.03 1196.82 52.03"/>
    <path class="st1" d="M1465.53,182.33l4.95,59.03c.89,10.64,9.33,19.08,19.97,19.97l59.03,4.95-59.03,4.95c-10.64.89-19.08,9.33-19.97,19.97l-4.95,59.03-4.95-59.03c-.89-10.64-9.33-19.08-19.97-19.97l-59.03-4.95,59.03-4.95c10.64-.89,19.08-9.33,19.97-19.97l4.95-59.03Z"/>
    <g>
      <path class="st1" d="M334.47,785.55c0-8.84,16.54-16,36.95-16s36.95,7.16,36.95,16"/>
      <path class="st1" d="M408.37,785.55c0-8.84,16.54-16,36.95-16s36.95,7.16,36.95,16"/>
      <path class="st1" d="M482.27,785.55c0-8.84,16.54-16,36.95-16s36.95,7.16,36.95,16"/>
    </g>
    <g>
      <path class="st1" d="M1196.82,52.03c0,8.84,16.54,16,36.95,16s36.95-7.16,36.95-16"/>
      <path class="st1" d="M1270.72,52.03c0,8.84,16.54,16,36.95,16s36.95-7.16,36.95-16"/>
      <path class="st1" d="M1344.62,52.03c0,8.84,16.54,16,36.95,16s36.95-7.16,36.95-16"/>
    </g>
    <g>
      <line class="st1" x1="1650.97" y1="708.75" x2="1650.98" y2="803.38"/>
      <line class="st1" x1="1650.96" y1="617.76" x2="1650.96" y2="665.28"/>
      <line class="st1" x1="1650.96" y1="31.96" x2="1650.96" y2="409.32"/>
      <g>
        <path class="st1" d="M1650.84,427.09l3.74,23.51c4.62,29.01,24.83,53.12,52.59,62.73l2.81.97-2.81.97c-27.76,9.61-47.97,33.72-52.59,62.73l-3.74,23.51-3.74-23.51c-4.62-29.01-24.83-53.12-52.59-62.73l-2.81-.97,2.81-.97c27.76-9.61,47.97-33.72,52.59-62.73l3.74-23.51Z"/>
        <line class="st1" x1="1591.69" y1="514.31" x2="1579.63" y2="514.31"/>
        <line class="st1" x1="1722.29" y1="514.31" x2="1710.24" y2="514.31"/>
        <line class="st1" x1="1650.84" y1="601.52" x2="1650.84" y2="619.29"/>
        <line class="st1" x1="1650.84" y1="409.32" x2="1650.84" y2="427.09"/>
      </g>
      <path class="st1" d="M1655.2,667.54l10.32-1.72c4.6-.77,8.5,3.4,7.43,7.94l-2.04,8.65,4.43,7.54c2.42,4.12-.26,9.37-5.02,9.81l-10,.93-7.55,7.24c-3.21,3.07-8.48,2.12-10.4-1.88l-4.31-8.93-8.59-3.79c-4.46-1.96-5.27-7.94-1.51-11.03l6.93-5.68,1.37-9.29c.66-4.47,5.55-6.94,9.53-4.81l9.4,5Z"/>
    </g>
    <g>
      <line class="st1" x1="117.4" y1="555.66" x2="117.4" y2="803.33"/>
      <line class="st1" x1="117.4" y1="330.64" x2="117.4" y2="443.64"/>
      <line class="st1" x1="117.4" y1="32.01" x2="117.4" y2="293.37"/>
      <path class="st1" d="M145.87,477.31l37.55,11.18c4.62,1.38,6.19,7.13,2.9,10.66l-25.34,27.2v36.43c0,4.55-4.55,7.69-8.8,6.08l-37.44-14.19-38.46,11.45c-4.39,1.31-8.72-2.22-8.33-6.78l3.1-36.2-22.95-28.94c-2.98-3.76-1-9.35,3.69-10.38l38.5-8.48,23.88-30.11c2.74-3.45,8.04-3.24,10.49.42l21.21,31.68Z"/>
      <path class="st1" d="M117.4,291.24l.09.99c.97,10.63,9.47,19,20.11,19.82l2.75.21-2.75.21c-10.64.82-19.14,9.19-20.11,19.82l-.09.99-.09-.99c-.97-10.63-9.47-19-20.11-19.82l-2.75-.21,2.75-.21c10.64-.82,19.14-9.19,20.11-19.82l.09-.99Z"/>
    </g>
  </g>
  <g id="Layer_4" class="st3">
    <g>
      <path class="st1" d="M-472.44,328.02l16.39,69.77c8.08,34.41,34.95,61.29,69.37,69.37l69.77,16.39-69.77,16.39c-34.41,8.08-61.29,34.95-69.37,69.37l-16.39,69.77-16.39-69.77c-8.08-34.41-34.95-61.29-69.37-69.37l-69.77-16.39,69.77-16.39c34.41-8.08,61.29-34.95,69.37-69.37l16.39-69.77Z"/>
      <line class="st1" x1="-627.96" y1="483.54" x2="-659.65" y2="483.54"/>
      <line class="st1" x1="-284.57" y1="483.54" x2="-316.26" y2="483.54"/>
      <line class="st1" x1="-472.44" y1="639.06" x2="-472.44" y2="670.75"/>
      <line class="st1" x1="-472.44" y1="296.33" x2="-472.44" y2="328.02"/>
    </g>
    <path class="st1" d="M-976.88,348.48l116-21.1c4.58-.83,8.54,3.25,7.55,7.8l-24.86,115.26,55.91,103.81c2.21,4.1-.46,9.12-5.09,9.6l-117.3,11.97-81.45,85.25c-3.22,3.37-8.82,2.38-10.7-1.87l-47.63-107.86-106.25-51.12c-4.19-2.02-4.99-7.65-1.52-10.75l87.86-78.63,15.78-116.84c.62-4.61,5.73-7.11,9.76-4.77l101.93,59.26Z"/>
    <path class="st1" d="M-672.31,663.09l15.17,180.77c.89,10.64,9.33,19.08,19.97,19.97l180.77,15.17-180.77,15.17c-10.64.89-19.08,9.33-19.97,19.97l-15.17,180.77-15.17-180.77c-.89-10.64-9.33-19.08-19.97-19.97l-180.77-15.17,180.77-15.17c10.64-.89,19.08-9.33,19.97-19.97l15.17-180.77Z"/>
  </g>
</svg>