<svg width="254" height="71" viewBox="0 0 254 71" fill="none" xmlns="http://www.w3.org/2000/svg">
<rect y="3.85156" width="254" height="67.0219" rx="20" fill="#7C8EBC"/>
<path d="M83.376 29.5052C83.376 31.3612 82.736 32.9079 81.456 34.1452C80.1973 35.3612 78.2667 35.9692 75.664 35.9692H71.376V45.2812H68.464V22.9772H75.664C78.1813 22.9772 80.0907 23.5852 81.392 24.8012C82.7147 26.0172 83.376 27.5852 83.376 29.5052ZM75.664 33.5692C77.2853 33.5692 78.48 33.2172 79.248 32.5132C80.016 31.8092 80.4 30.8066 80.4 29.5052C80.4 26.7532 78.8213 25.3772 75.664 25.3772H71.376V33.5692H75.664ZM89.9073 30.5932C90.4193 29.5906 91.1446 28.8119 92.0833 28.2572C93.0433 27.7026 94.2059 27.4252 95.5713 27.4252V30.4332H94.8033C91.5393 30.4332 89.9073 32.2039 89.9073 35.7452V45.2812H86.9953V27.7452H89.9073V30.5932ZM106.581 45.5693C104.938 45.5693 103.445 45.1959 102.101 44.4492C100.778 43.7026 99.7328 42.6466 98.9648 41.2812C98.2181 39.8946 97.8448 38.2946 97.8448 36.4812C97.8448 34.6892 98.2288 33.1106 98.9968 31.7452C99.7861 30.3586 100.853 29.3026 102.197 28.5772C103.541 27.8306 105.045 27.4572 106.709 27.4572C108.373 27.4572 109.877 27.8306 111.221 28.5772C112.565 29.3026 113.621 30.3479 114.389 31.7132C115.178 33.0786 115.573 34.6679 115.573 36.4812C115.573 38.2946 115.167 39.8946 114.357 41.2812C113.567 42.6466 112.49 43.7026 111.125 44.4492C109.759 45.1959 108.245 45.5693 106.581 45.5693ZM106.581 43.0092C107.626 43.0092 108.607 42.7639 109.525 42.2732C110.442 41.7826 111.178 41.0466 111.733 40.0652C112.309 39.0839 112.597 37.8892 112.597 36.4812C112.597 35.0732 112.319 33.8786 111.765 32.8972C111.21 31.9159 110.485 31.1906 109.589 30.7212C108.693 30.2306 107.722 29.9852 106.677 29.9852C105.61 29.9852 104.629 30.2306 103.733 30.7212C102.858 31.1906 102.154 31.9159 101.621 32.8972C101.087 33.8786 100.821 35.0732 100.821 36.4812C100.821 37.9106 101.077 39.1159 101.589 40.0972C102.122 41.0786 102.826 41.8146 103.701 42.3052C104.575 42.7746 105.535 43.0092 106.581 43.0092ZM120.97 24.8972C120.415 24.8972 119.946 24.7052 119.562 24.3212C119.199 23.9372 119.018 23.4679 119.018 22.9132C119.018 22.3586 119.199 21.8892 119.562 21.5052C119.946 21.1212 120.415 20.9292 120.97 20.9292C121.524 20.9292 121.983 21.1212 122.346 21.5052C122.73 21.8892 122.922 22.3586 122.922 22.9132C122.922 23.4679 122.73 23.9372 122.346 24.3212C121.983 24.7052 121.524 24.8972 120.97 24.8972ZM122.41 49.0893C122.41 50.6466 122.015 51.7879 121.226 52.5133C120.436 53.2386 119.284 53.6013 117.77 53.6013H116.073V51.1373H117.29C118.1 51.1373 118.666 50.9773 118.986 50.6573C119.327 50.3373 119.498 49.7933 119.498 49.0253V27.7452H122.41V49.0893ZM143.339 35.8412C143.339 36.3959 143.307 36.9826 143.243 37.6012H129.227C129.334 39.3292 129.92 40.6839 130.987 41.6652C132.075 42.6252 133.387 43.1052 134.923 43.1052C136.182 43.1052 137.227 42.8172 138.059 42.2412C138.912 41.6439 139.51 40.8546 139.851 39.8732H142.987C142.518 41.5586 141.579 42.9346 140.171 44.0012C138.763 45.0466 137.014 45.5693 134.923 45.5693C133.259 45.5693 131.766 45.1959 130.443 44.4492C129.142 43.7026 128.118 42.6466 127.371 41.2812C126.624 39.8946 126.251 38.2946 126.251 36.4812C126.251 34.6679 126.614 33.0786 127.339 31.7132C128.064 30.3479 129.078 29.3026 130.379 28.5772C131.702 27.8306 133.216 27.4572 134.923 27.4572C136.587 27.4572 138.059 27.8199 139.339 28.5452C140.619 29.2706 141.6 30.2732 142.283 31.5532C142.987 32.8119 143.339 34.2412 143.339 35.8412ZM140.331 35.2332C140.331 34.1239 140.086 33.1746 139.595 32.3852C139.104 31.5746 138.432 30.9666 137.579 30.5612C136.747 30.1346 135.819 29.9212 134.795 29.9212C133.323 29.9212 132.064 30.3906 131.019 31.3292C129.995 32.2679 129.408 33.5692 129.259 35.2332H140.331ZM146.095 36.4812C146.095 34.6679 146.457 33.0892 147.183 31.7452C147.908 30.3799 148.911 29.3239 150.191 28.5772C151.492 27.8306 152.975 27.4572 154.639 27.4572C156.793 27.4572 158.564 27.9799 159.951 29.0252C161.359 30.0706 162.287 31.5212 162.735 33.3772H159.599C159.3 32.3106 158.713 31.4679 157.839 30.8492C156.985 30.2306 155.919 29.9212 154.639 29.9212C152.975 29.9212 151.631 30.4972 150.607 31.6492C149.583 32.7799 149.071 34.3906 149.071 36.4812C149.071 38.5932 149.583 40.2252 150.607 41.3772C151.631 42.5292 152.975 43.1052 154.639 43.1052C155.919 43.1052 156.985 42.8066 157.839 42.2092C158.692 41.6119 159.279 40.7586 159.599 39.6492H162.735C162.265 41.4412 161.327 42.8812 159.919 43.9692C158.511 45.0359 156.751 45.5693 154.639 45.5693C152.975 45.5693 151.492 45.1959 150.191 44.4492C148.911 43.7026 147.908 42.6466 147.183 41.2812C146.457 39.9159 146.095 38.3159 146.095 36.4812ZM170.172 30.1452V40.4812C170.172 41.3346 170.354 41.9426 170.716 42.3052C171.079 42.6466 171.708 42.8172 172.604 42.8172H174.748V45.2812H172.124C170.503 45.2812 169.287 44.9079 168.476 44.1612C167.666 43.4146 167.26 42.1879 167.26 40.4812V30.1452H164.988V27.7452H167.26V23.3292H170.172V27.7452H174.748V30.1452H170.172ZM184.485 45.5693C183.141 45.5693 181.935 45.3453 180.869 44.8972C179.802 44.4279 178.959 43.7879 178.341 42.9772C177.722 42.1452 177.381 41.1959 177.317 40.1292H180.325C180.41 41.0039 180.815 41.7186 181.541 42.2732C182.287 42.8279 183.258 43.1052 184.453 43.1052C185.562 43.1052 186.437 42.8599 187.077 42.3692C187.717 41.8786 188.037 41.2599 188.037 40.5132C188.037 39.7452 187.695 39.1799 187.013 38.8172C186.33 38.4332 185.274 38.0599 183.845 37.6972C182.543 37.3559 181.477 37.0146 180.645 36.6732C179.834 36.3106 179.13 35.7879 178.533 35.1052C177.957 34.4012 177.669 33.4839 177.669 32.3532C177.669 31.4572 177.935 30.6359 178.469 29.8892C179.002 29.1426 179.759 28.5559 180.741 28.1292C181.722 27.6812 182.842 27.4572 184.101 27.4572C186.042 27.4572 187.61 27.9479 188.805 28.9292C189.999 29.9106 190.639 31.2546 190.725 32.9612H187.813C187.749 32.0439 187.375 31.3079 186.693 30.7532C186.031 30.1986 185.135 29.9212 184.005 29.9212C182.959 29.9212 182.127 30.1452 181.509 30.5932C180.89 31.0412 180.581 31.6279 180.581 32.3532C180.581 32.9292 180.762 33.4092 181.125 33.7932C181.509 34.1559 181.978 34.4546 182.533 34.6892C183.109 34.9026 183.898 35.1479 184.901 35.4252C186.159 35.7666 187.183 36.1079 187.973 36.4492C188.762 36.7692 189.434 37.2599 189.989 37.9212C190.565 38.5826 190.863 39.4466 190.885 40.5132C190.885 41.4732 190.618 42.3372 190.085 43.1052C189.551 43.8732 188.794 44.4812 187.813 44.9292C186.853 45.3559 185.743 45.5693 184.485 45.5693Z" fill="white"/>
</svg>
