<svg width="254" height="71" viewBox="0 0 254 71" fill="none" xmlns="http://www.w3.org/2000/svg">
<rect y="3.57031" width="254" height="67.0219" rx="20" fill="#C28280"/>
<path d="M92.648 23.2663V45.5703H89.736V35.4583H78.376V45.5703H75.464V23.2663H78.376V33.0583H89.736V23.2663H92.648ZM105.268 45.8583C103.626 45.8583 102.132 45.485 100.788 44.7383C99.4656 43.9916 98.4203 42.9356 97.6523 41.5703C96.9056 40.1836 96.5323 38.5836 96.5323 36.7703C96.5323 34.9783 96.9163 33.3996 97.6843 32.0343C98.4736 30.6476 99.5403 29.5916 100.884 28.8663C102.228 28.1196 103.732 27.7463 105.396 27.7463C107.06 27.7463 108.564 28.1196 109.908 28.8663C111.252 29.5916 112.308 30.637 113.076 32.0023C113.866 33.3676 114.26 34.957 114.26 36.7703C114.26 38.5836 113.855 40.1836 113.044 41.5703C112.255 42.9356 111.178 43.9916 109.812 44.7383C108.447 45.485 106.932 45.8583 105.268 45.8583ZM105.268 43.2983C106.314 43.2983 107.295 43.053 108.212 42.5623C109.13 42.0716 109.866 41.3356 110.42 40.3543C110.996 39.373 111.284 38.1783 111.284 36.7703C111.284 35.3623 111.007 34.1676 110.452 33.1863C109.898 32.205 109.172 31.4796 108.276 31.0103C107.38 30.5196 106.41 30.2743 105.364 30.2743C104.298 30.2743 103.316 30.5196 102.42 31.0103C101.546 31.4796 100.842 32.205 100.308 33.1863C99.7749 34.1676 99.5083 35.3623 99.5083 36.7703C99.5083 38.1996 99.7643 39.405 100.276 40.3863C100.81 41.3676 101.514 42.1036 102.388 42.5943C103.263 43.0636 104.223 43.2983 105.268 43.2983ZM139.177 27.7143C140.542 27.7143 141.758 28.0023 142.825 28.5783C143.892 29.133 144.734 29.9756 145.353 31.1063C145.972 32.237 146.281 33.613 146.281 35.2343V45.5703H143.401V35.6503C143.401 33.901 142.964 32.5676 142.089 31.6503C141.236 30.7116 140.073 30.2423 138.601 30.2423C137.086 30.2423 135.881 30.733 134.985 31.7143C134.089 32.6743 133.641 34.0716 133.641 35.9063V45.5703H130.761V35.6503C130.761 33.901 130.324 32.5676 129.449 31.6503C128.596 30.7116 127.433 30.2423 125.961 30.2423C124.446 30.2423 123.241 30.733 122.345 31.7143C121.449 32.6743 121.001 34.0716 121.001 35.9063V45.5703H118.089V28.0343H121.001V30.5623C121.577 29.645 122.345 28.941 123.305 28.4503C124.286 27.9596 125.364 27.7143 126.537 27.7143C128.009 27.7143 129.31 28.045 130.441 28.7063C131.572 29.3676 132.414 30.3383 132.969 31.6183C133.46 30.381 134.27 29.421 135.401 28.7383C136.532 28.0556 137.79 27.7143 139.177 27.7143ZM167.058 36.1303C167.058 36.685 167.026 37.2716 166.962 37.8903H152.946C153.052 39.6183 153.639 40.973 154.706 41.9543C155.794 42.9143 157.106 43.3943 158.642 43.3943C159.9 43.3943 160.946 43.1063 161.778 42.5303C162.631 41.933 163.228 41.1436 163.57 40.1623H166.706C166.236 41.8476 165.298 43.2236 163.89 44.2903C162.482 45.3356 160.732 45.8583 158.642 45.8583C156.978 45.8583 155.484 45.485 154.162 44.7383C152.86 43.9916 151.836 42.9356 151.09 41.5703C150.343 40.1836 149.97 38.5836 149.97 36.7703C149.97 34.957 150.332 33.3676 151.058 32.0023C151.783 30.637 152.796 29.5916 154.098 28.8663C155.42 28.1196 156.935 27.7463 158.642 27.7463C160.306 27.7463 161.778 28.109 163.058 28.8343C164.338 29.5596 165.319 30.5623 166.002 31.8423C166.706 33.101 167.058 34.5303 167.058 36.1303ZM164.05 35.5223C164.05 34.413 163.804 33.4636 163.314 32.6743C162.823 31.8636 162.151 31.2556 161.298 30.8503C160.466 30.4236 159.538 30.2103 158.514 30.2103C157.042 30.2103 155.783 30.6796 154.738 31.6183C153.714 32.557 153.127 33.8583 152.978 35.5223H164.05Z" fill="white"/>
</svg>
