<svg width="254" height="71" viewBox="0 0 254 71" fill="none" xmlns="http://www.w3.org/2000/svg">
<rect y="23.8552" width="254" height="46.5746" rx="20" fill="#656565"/>
<rect width="254" height="67.0219" rx="20" fill="#AAB8DB"/>
<path d="M83.376 25.6537C83.376 27.5097 82.736 29.0564 81.456 30.2937C80.1973 31.5097 78.2667 32.1177 75.664 32.1177H71.376V41.4297H68.464V19.1257H75.664C78.1813 19.1257 80.0907 19.7337 81.392 20.9497C82.7147 22.1657 83.376 23.7337 83.376 25.6537ZM75.664 29.7177C77.2853 29.7177 78.48 29.3657 79.248 28.6617C80.016 27.9577 80.4 26.955 80.4 25.6537C80.4 22.9017 78.8213 21.5257 75.664 21.5257H71.376V29.7177H75.664ZM89.9073 26.7417C90.4193 25.739 91.1446 24.9604 92.0833 24.4057C93.0433 23.851 94.2059 23.5737 95.5713 23.5737V26.5817H94.8033C91.5393 26.5817 89.9073 28.3524 89.9073 31.8937V41.4297H86.9953V23.8937H89.9073V26.7417ZM106.581 41.7177C104.938 41.7177 103.445 41.3444 102.101 40.5977C100.778 39.851 99.7328 38.795 98.9648 37.4297C98.2181 36.043 97.8448 34.443 97.8448 32.6297C97.8448 30.8377 98.2288 29.259 98.9968 27.8937C99.7861 26.507 100.853 25.451 102.197 24.7257C103.541 23.979 105.045 23.6057 106.709 23.6057C108.373 23.6057 109.877 23.979 111.221 24.7257C112.565 25.451 113.621 26.4964 114.389 27.8617C115.178 29.227 115.573 30.8164 115.573 32.6297C115.573 34.443 115.167 36.043 114.357 37.4297C113.567 38.795 112.49 39.851 111.125 40.5977C109.759 41.3444 108.245 41.7177 106.581 41.7177ZM106.581 39.1577C107.626 39.1577 108.607 38.9124 109.525 38.4217C110.442 37.931 111.178 37.195 111.733 36.2137C112.309 35.2324 112.597 34.0377 112.597 32.6297C112.597 31.2217 112.319 30.027 111.765 29.0457C111.21 28.0644 110.485 27.339 109.589 26.8697C108.693 26.379 107.722 26.1337 106.677 26.1337C105.61 26.1337 104.629 26.379 103.733 26.8697C102.858 27.339 102.154 28.0644 101.621 29.0457C101.087 30.027 100.821 31.2217 100.821 32.6297C100.821 34.059 101.077 35.2644 101.589 36.2457C102.122 37.227 102.826 37.963 103.701 38.4537C104.575 38.923 105.535 39.1577 106.581 39.1577ZM120.97 21.0457C120.415 21.0457 119.946 20.8537 119.562 20.4697C119.199 20.0857 119.018 19.6164 119.018 19.0617C119.018 18.507 119.199 18.0377 119.562 17.6537C119.946 17.2697 120.415 17.0777 120.97 17.0777C121.524 17.0777 121.983 17.2697 122.346 17.6537C122.73 18.0377 122.922 18.507 122.922 19.0617C122.922 19.6164 122.73 20.0857 122.346 20.4697C121.983 20.8537 121.524 21.0457 120.97 21.0457ZM122.41 45.2377C122.41 46.795 122.015 47.9364 121.226 48.6617C120.436 49.387 119.284 49.7497 117.77 49.7497H116.073V47.2857H117.29C118.1 47.2857 118.666 47.1257 118.986 46.8057C119.327 46.4857 119.498 45.9417 119.498 45.1737V23.8937H122.41V45.2377ZM143.339 31.9897C143.339 32.5444 143.307 33.131 143.243 33.7497H129.227C129.334 35.4777 129.92 36.8324 130.987 37.8137C132.075 38.7737 133.387 39.2537 134.923 39.2537C136.182 39.2537 137.227 38.9657 138.059 38.3897C138.912 37.7924 139.51 37.003 139.851 36.0217H142.987C142.518 37.707 141.579 39.083 140.171 40.1497C138.763 41.195 137.014 41.7177 134.923 41.7177C133.259 41.7177 131.766 41.3444 130.443 40.5977C129.142 39.851 128.118 38.795 127.371 37.4297C126.624 36.043 126.251 34.443 126.251 32.6297C126.251 30.8164 126.614 29.227 127.339 27.8617C128.064 26.4964 129.078 25.451 130.379 24.7257C131.702 23.979 133.216 23.6057 134.923 23.6057C136.587 23.6057 138.059 23.9684 139.339 24.6937C140.619 25.419 141.6 26.4217 142.283 27.7017C142.987 28.9604 143.339 30.3897 143.339 31.9897ZM140.331 31.3817C140.331 30.2724 140.086 29.323 139.595 28.5337C139.104 27.723 138.432 27.115 137.579 26.7097C136.747 26.283 135.819 26.0697 134.795 26.0697C133.323 26.0697 132.064 26.539 131.019 27.4777C129.995 28.4164 129.408 29.7177 129.259 31.3817H140.331ZM146.095 32.6297C146.095 30.8164 146.457 29.2377 147.183 27.8937C147.908 26.5284 148.911 25.4724 150.191 24.7257C151.492 23.979 152.975 23.6057 154.639 23.6057C156.793 23.6057 158.564 24.1284 159.951 25.1737C161.359 26.219 162.287 27.6697 162.735 29.5257H159.599C159.3 28.459 158.713 27.6164 157.839 26.9977C156.985 26.379 155.919 26.0697 154.639 26.0697C152.975 26.0697 151.631 26.6457 150.607 27.7977C149.583 28.9284 149.071 30.539 149.071 32.6297C149.071 34.7417 149.583 36.3737 150.607 37.5257C151.631 38.6777 152.975 39.2537 154.639 39.2537C155.919 39.2537 156.985 38.955 157.839 38.3577C158.692 37.7604 159.279 36.907 159.599 35.7977H162.735C162.265 37.5897 161.327 39.0297 159.919 40.1177C158.511 41.1844 156.751 41.7177 154.639 41.7177C152.975 41.7177 151.492 41.3444 150.191 40.5977C148.911 39.851 147.908 38.795 147.183 37.4297C146.457 36.0644 146.095 34.4644 146.095 32.6297ZM170.172 26.2937V36.6297C170.172 37.483 170.354 38.091 170.716 38.4537C171.079 38.795 171.708 38.9657 172.604 38.9657H174.748V41.4297H172.124C170.503 41.4297 169.287 41.0564 168.476 40.3097C167.666 39.563 167.26 38.3364 167.26 36.6297V26.2937H164.988V23.8937H167.26V19.4777H170.172V23.8937H174.748V26.2937H170.172ZM184.485 41.7177C183.141 41.7177 181.935 41.4937 180.869 41.0457C179.802 40.5764 178.959 39.9364 178.341 39.1257C177.722 38.2937 177.381 37.3444 177.317 36.2777H180.325C180.41 37.1524 180.815 37.867 181.541 38.4217C182.287 38.9764 183.258 39.2537 184.453 39.2537C185.562 39.2537 186.437 39.0084 187.077 38.5177C187.717 38.027 188.037 37.4084 188.037 36.6617C188.037 35.8937 187.695 35.3284 187.013 34.9657C186.33 34.5817 185.274 34.2084 183.845 33.8457C182.543 33.5044 181.477 33.163 180.645 32.8217C179.834 32.459 179.13 31.9364 178.533 31.2537C177.957 30.5497 177.669 29.6324 177.669 28.5017C177.669 27.6057 177.935 26.7844 178.469 26.0377C179.002 25.291 179.759 24.7044 180.741 24.2777C181.722 23.8297 182.842 23.6057 184.101 23.6057C186.042 23.6057 187.61 24.0964 188.805 25.0777C189.999 26.059 190.639 27.403 190.725 29.1097H187.813C187.749 28.1924 187.375 27.4564 186.693 26.9017C186.031 26.347 185.135 26.0697 184.005 26.0697C182.959 26.0697 182.127 26.2937 181.509 26.7417C180.89 27.1897 180.581 27.7764 180.581 28.5017C180.581 29.0777 180.762 29.5577 181.125 29.9417C181.509 30.3044 181.978 30.603 182.533 30.8377C183.109 31.051 183.898 31.2964 184.901 31.5737C186.159 31.915 187.183 32.2564 187.973 32.5977C188.762 32.9177 189.434 33.4084 189.989 34.0697C190.565 34.731 190.863 35.595 190.885 36.6617C190.885 37.6217 190.618 38.4857 190.085 39.2537C189.551 40.0217 188.794 40.6297 187.813 41.0777C186.853 41.5044 185.743 41.7177 184.485 41.7177Z" fill="white"/>
</svg>
