<svg width="254" height="71" viewBox="0 0 254 71" fill="none" xmlns="http://www.w3.org/2000/svg">
<rect y="23.8552" width="254" height="46.5746" rx="20" fill="#656565"/>
<rect width="254" height="67.0219" rx="20" fill="#F29B70"/>
<path d="M92.648 19.696V42H89.736V31.888H78.376V42H75.464V19.696H78.376V29.488H89.736V19.696H92.648ZM105.268 42.288C103.626 42.288 102.132 41.9147 100.788 41.168C99.4656 40.4213 98.4203 39.3653 97.6523 38C96.9056 36.6133 96.5323 35.0133 96.5323 33.2C96.5323 31.408 96.9163 29.8293 97.6843 28.464C98.4736 27.0773 99.5403 26.0213 100.884 25.296C102.228 24.5493 103.732 24.176 105.396 24.176C107.06 24.176 108.564 24.5493 109.908 25.296C111.252 26.0213 112.308 27.0667 113.076 28.432C113.866 29.7973 114.26 31.3867 114.26 33.2C114.26 35.0133 113.855 36.6133 113.044 38C112.255 39.3653 111.178 40.4213 109.812 41.168C108.447 41.9147 106.932 42.288 105.268 42.288ZM105.268 39.728C106.314 39.728 107.295 39.4827 108.212 38.992C109.13 38.5013 109.866 37.7653 110.42 36.784C110.996 35.8027 111.284 34.608 111.284 33.2C111.284 31.792 111.007 30.5973 110.452 29.616C109.898 28.6347 109.172 27.9093 108.276 27.44C107.38 26.9493 106.41 26.704 105.364 26.704C104.298 26.704 103.316 26.9493 102.42 27.44C101.546 27.9093 100.842 28.6347 100.308 29.616C99.7749 30.5973 99.5083 31.792 99.5083 33.2C99.5083 34.6293 99.7643 35.8347 100.276 36.816C100.81 37.7973 101.514 38.5333 102.388 39.024C103.263 39.4933 104.223 39.728 105.268 39.728ZM139.177 24.144C140.542 24.144 141.758 24.432 142.825 25.008C143.892 25.5627 144.734 26.4053 145.353 27.536C145.972 28.6667 146.281 30.0427 146.281 31.664V42H143.401V32.08C143.401 30.3307 142.964 28.9973 142.089 28.08C141.236 27.1413 140.073 26.672 138.601 26.672C137.086 26.672 135.881 27.1627 134.985 28.144C134.089 29.104 133.641 30.5013 133.641 32.336V42H130.761V32.08C130.761 30.3307 130.324 28.9973 129.449 28.08C128.596 27.1413 127.433 26.672 125.961 26.672C124.446 26.672 123.241 27.1627 122.345 28.144C121.449 29.104 121.001 30.5013 121.001 32.336V42H118.089V24.464H121.001V26.992C121.577 26.0747 122.345 25.3707 123.305 24.88C124.286 24.3893 125.364 24.144 126.537 24.144C128.009 24.144 129.31 24.4747 130.441 25.136C131.572 25.7973 132.414 26.768 132.969 28.048C133.46 26.8107 134.27 25.8507 135.401 25.168C136.532 24.4853 137.79 24.144 139.177 24.144ZM167.058 32.56C167.058 33.1147 167.026 33.7013 166.962 34.32H152.946C153.052 36.048 153.639 37.4027 154.706 38.384C155.794 39.344 157.106 39.824 158.642 39.824C159.9 39.824 160.946 39.536 161.778 38.96C162.631 38.3627 163.228 37.5733 163.57 36.592H166.706C166.236 38.2773 165.298 39.6533 163.89 40.72C162.482 41.7653 160.732 42.288 158.642 42.288C156.978 42.288 155.484 41.9147 154.162 41.168C152.86 40.4213 151.836 39.3653 151.09 38C150.343 36.6133 149.97 35.0133 149.97 33.2C149.97 31.3867 150.332 29.7973 151.058 28.432C151.783 27.0667 152.796 26.0213 154.098 25.296C155.42 24.5493 156.935 24.176 158.642 24.176C160.306 24.176 161.778 24.5387 163.058 25.264C164.338 25.9893 165.319 26.992 166.002 28.272C166.706 29.5307 167.058 30.96 167.058 32.56ZM164.05 31.952C164.05 30.8427 163.804 29.8933 163.314 29.104C162.823 28.2933 162.151 27.6853 161.298 27.28C160.466 26.8533 159.538 26.64 158.514 26.64C157.042 26.64 155.783 27.1093 154.738 28.048C153.714 28.9867 153.127 30.288 152.978 31.952H164.05Z" fill="white"/>
</svg>
