<svg width="254" height="71" viewBox="0 0 254 71" fill="none" xmlns="http://www.w3.org/2000/svg">
<rect y="23.8552" width="254" height="46.5746" rx="20" fill="#656565"/>
<rect width="254" height="67.0219" rx="20" fill="#A282C5"/>
<path d="M63.648 37.7548H53.92L52.128 42.7148H49.056L57.12 20.5388H60.48L68.512 42.7148H65.44L63.648 37.7548ZM62.816 35.3868L58.784 24.1228L54.752 35.3868H62.816ZM74.9385 28.4428C75.5358 27.3975 76.4105 26.5442 77.5625 25.8828C78.7145 25.2215 80.0265 24.8908 81.4985 24.8908C83.0772 24.8908 84.4958 25.2642 85.7545 26.0108C87.0132 26.7575 88.0052 27.8135 88.7305 29.1788C89.4558 30.5228 89.8185 32.0908 89.8185 33.8828C89.8185 35.6535 89.4558 37.2322 88.7305 38.6188C88.0052 40.0055 87.0025 41.0828 85.7225 41.8508C84.4638 42.6188 83.0558 43.0028 81.4985 43.0028C79.9838 43.0028 78.6505 42.6722 77.4985 42.0108C76.3678 41.3495 75.5145 40.5068 74.9385 39.4828V42.7148H72.0265V19.0348H74.9385V28.4428ZM86.8425 33.8828C86.8425 32.5602 86.5758 31.4082 86.0425 30.4268C85.5092 29.4455 84.7838 28.6988 83.8665 28.1868C82.9705 27.6748 81.9785 27.4188 80.8905 27.4188C79.8238 27.4188 78.8318 27.6855 77.9145 28.2188C77.0185 28.7308 76.2932 29.4882 75.7385 30.4908C75.2052 31.4722 74.9385 32.6135 74.9385 33.9148C74.9385 35.2375 75.2052 36.4002 75.7385 37.4028C76.2932 38.3842 77.0185 39.1415 77.9145 39.6748C78.8318 40.1868 79.8238 40.4428 80.8905 40.4428C81.9785 40.4428 82.9705 40.1868 83.8665 39.6748C84.7838 39.1415 85.5092 38.3842 86.0425 37.4028C86.5758 36.4002 86.8425 35.2268 86.8425 33.8828ZM101.3 43.0028C99.6568 43.0028 98.1635 42.6295 96.8195 41.8828C95.4968 41.1362 94.4515 40.0802 93.6835 38.7148C92.9368 37.3282 92.5635 35.7282 92.5635 33.9148C92.5635 32.1228 92.9475 30.5442 93.7155 29.1788C94.5048 27.7922 95.5715 26.7362 96.9155 26.0108C98.2595 25.2642 99.7635 24.8908 101.428 24.8908C103.092 24.8908 104.596 25.2642 105.94 26.0108C107.284 26.7362 108.34 27.7815 109.108 29.1468C109.897 30.5122 110.292 32.1015 110.292 33.9148C110.292 35.7282 109.886 37.3282 109.076 38.7148C108.286 40.0802 107.209 41.1362 105.844 41.8828C104.478 42.6295 102.964 43.0028 101.3 43.0028ZM101.3 40.4428C102.345 40.4428 103.326 40.1975 104.244 39.7068C105.161 39.2162 105.897 38.4802 106.452 37.4988C107.028 36.5175 107.316 35.3228 107.316 33.9148C107.316 32.5068 107.038 31.3122 106.484 30.3308C105.929 29.3495 105.204 28.6242 104.308 28.1548C103.412 27.6642 102.441 27.4188 101.396 27.4188C100.329 27.4188 99.3475 27.6642 98.4515 28.1548C97.5768 28.6242 96.8728 29.3495 96.3395 30.3308C95.8062 31.3122 95.5395 32.5068 95.5395 33.9148C95.5395 35.3442 95.7955 36.5495 96.3075 37.5308C96.8408 38.5122 97.5448 39.2482 98.4195 39.7388C99.2942 40.2082 100.254 40.4428 101.3 40.4428ZM129.672 25.1788V42.7148H126.76V40.1228C126.206 41.0188 125.427 41.7228 124.424 42.2348C123.443 42.7255 122.355 42.9708 121.16 42.9708C119.795 42.9708 118.568 42.6935 117.48 42.1388C116.392 41.5628 115.528 40.7095 114.888 39.5788C114.27 38.4482 113.96 37.0722 113.96 35.4508V25.1788H116.84V35.0668C116.84 36.7948 117.278 38.1282 118.152 39.0668C119.027 39.9842 120.222 40.4428 121.736 40.4428C123.294 40.4428 124.52 39.9628 125.416 39.0028C126.312 38.0428 126.76 36.6455 126.76 34.8108V25.1788H129.672ZM138.141 27.5788V37.9148C138.141 38.7682 138.322 39.3762 138.685 39.7388C139.048 40.0802 139.677 40.2508 140.573 40.2508H142.717V42.7148H140.093C138.472 42.7148 137.256 42.3415 136.445 41.5948C135.634 40.8482 135.229 39.6215 135.229 37.9148V27.5788H132.957V25.1788H135.229V20.7628H138.141V25.1788H142.717V27.5788H138.141ZM175.865 24.8588C177.23 24.8588 178.446 25.1468 179.513 25.7228C180.579 26.2775 181.422 27.1202 182.041 28.2508C182.659 29.3815 182.969 30.7575 182.969 32.3788V42.7148H180.089V32.7948C180.089 31.0455 179.651 29.7122 178.777 28.7948C177.923 27.8562 176.761 27.3868 175.289 27.3868C173.774 27.3868 172.569 27.8775 171.673 28.8588C170.777 29.8188 170.329 31.2162 170.329 33.0508V42.7148H167.449V32.7948C167.449 31.0455 167.011 29.7122 166.137 28.7948C165.283 27.8562 164.121 27.3868 162.649 27.3868C161.134 27.3868 159.929 27.8775 159.033 28.8588C158.137 29.8188 157.689 31.2162 157.689 33.0508V42.7148H154.777V25.1788H157.689V27.7068C158.265 26.7895 159.033 26.0855 159.993 25.5948C160.974 25.1042 162.051 24.8588 163.225 24.8588C164.697 24.8588 165.998 25.1895 167.129 25.8508C168.259 26.5122 169.102 27.4828 169.657 28.7628C170.147 27.5255 170.958 26.5655 172.089 25.8828C173.219 25.2002 174.478 24.8588 175.865 24.8588ZM203.745 33.2748C203.745 33.8295 203.713 34.4162 203.649 35.0348H189.633C189.74 36.7628 190.327 38.1175 191.393 39.0988C192.481 40.0588 193.793 40.5388 195.329 40.5388C196.588 40.5388 197.633 40.2508 198.465 39.6748C199.319 39.0775 199.916 38.2882 200.257 37.3068H203.393C202.924 38.9922 201.985 40.3682 200.577 41.4348C199.169 42.4802 197.42 43.0028 195.329 43.0028C193.665 43.0028 192.172 42.6295 190.849 41.8828C189.548 41.1362 188.524 40.0802 187.777 38.7148C187.031 37.3282 186.657 35.7282 186.657 33.9148C186.657 32.1015 187.02 30.5122 187.745 29.1468C188.471 27.7815 189.484 26.7362 190.785 26.0108C192.108 25.2642 193.623 24.8908 195.329 24.8908C196.993 24.8908 198.465 25.2535 199.745 25.9788C201.025 26.7042 202.007 27.7068 202.689 28.9868C203.393 30.2455 203.745 31.6748 203.745 33.2748ZM200.737 32.6668C200.737 31.5575 200.492 30.6082 200.001 29.8188C199.511 29.0082 198.839 28.4002 197.985 27.9948C197.153 27.5682 196.225 27.3548 195.201 27.3548C193.729 27.3548 192.471 27.8242 191.425 28.7628C190.401 29.7015 189.815 31.0028 189.665 32.6668H200.737Z" fill="white"/>
</svg>
