<svg width="254" height="71" viewBox="0 0 254 71" fill="none" xmlns="http://www.w3.org/2000/svg">
<rect y="3" width="254" height="67.0219" rx="20" fill="#8459B1"/>
<path d="M63.648 40.7548H53.92L52.128 45.7148H49.056L57.12 23.5388H60.48L68.512 45.7148H65.44L63.648 40.7548ZM62.816 38.3868L58.784 27.1228L54.752 38.3868H62.816ZM74.9385 31.4428C75.5358 30.3975 76.4105 29.5442 77.5625 28.8828C78.7145 28.2215 80.0265 27.8908 81.4985 27.8908C83.0772 27.8908 84.4958 28.2642 85.7545 29.0108C87.0132 29.7575 88.0052 30.8135 88.7305 32.1788C89.4558 33.5228 89.8185 35.0908 89.8185 36.8828C89.8185 38.6535 89.4558 40.2322 88.7305 41.6188C88.0052 43.0055 87.0025 44.0828 85.7225 44.8508C84.4638 45.6188 83.0558 46.0028 81.4985 46.0028C79.9838 46.0028 78.6505 45.6722 77.4985 45.0108C76.3678 44.3495 75.5145 43.5068 74.9385 42.4828V45.7148H72.0265V22.0348H74.9385V31.4428ZM86.8425 36.8828C86.8425 35.5602 86.5758 34.4082 86.0425 33.4268C85.5092 32.4455 84.7838 31.6988 83.8665 31.1868C82.9705 30.6748 81.9785 30.4188 80.8905 30.4188C79.8238 30.4188 78.8318 30.6855 77.9145 31.2188C77.0185 31.7308 76.2932 32.4882 75.7385 33.4908C75.2052 34.4722 74.9385 35.6135 74.9385 36.9148C74.9385 38.2375 75.2052 39.4002 75.7385 40.4028C76.2932 41.3842 77.0185 42.1415 77.9145 42.6748C78.8318 43.1868 79.8238 43.4428 80.8905 43.4428C81.9785 43.4428 82.9705 43.1868 83.8665 42.6748C84.7838 42.1415 85.5092 41.3842 86.0425 40.4028C86.5758 39.4002 86.8425 38.2268 86.8425 36.8828ZM101.3 46.0028C99.6568 46.0028 98.1635 45.6295 96.8195 44.8828C95.4968 44.1362 94.4515 43.0802 93.6835 41.7148C92.9368 40.3282 92.5635 38.7282 92.5635 36.9148C92.5635 35.1228 92.9475 33.5442 93.7155 32.1788C94.5048 30.7922 95.5715 29.7362 96.9155 29.0108C98.2595 28.2642 99.7635 27.8908 101.428 27.8908C103.092 27.8908 104.596 28.2642 105.94 29.0108C107.284 29.7362 108.34 30.7815 109.108 32.1468C109.897 33.5122 110.292 35.1015 110.292 36.9148C110.292 38.7282 109.886 40.3282 109.076 41.7148C108.286 43.0802 107.209 44.1362 105.844 44.8828C104.478 45.6295 102.964 46.0028 101.3 46.0028ZM101.3 43.4428C102.345 43.4428 103.326 43.1975 104.244 42.7068C105.161 42.2162 105.897 41.4802 106.452 40.4988C107.028 39.5175 107.316 38.3228 107.316 36.9148C107.316 35.5068 107.038 34.3122 106.484 33.3308C105.929 32.3495 105.204 31.6242 104.308 31.1548C103.412 30.6642 102.441 30.4188 101.396 30.4188C100.329 30.4188 99.3475 30.6642 98.4515 31.1548C97.5768 31.6242 96.8728 32.3495 96.3395 33.3308C95.8062 34.3122 95.5395 35.5068 95.5395 36.9148C95.5395 38.3442 95.7955 39.5495 96.3075 40.5308C96.8408 41.5122 97.5448 42.2482 98.4195 42.7388C99.2942 43.2082 100.254 43.4428 101.3 43.4428ZM129.672 28.1788V45.7148H126.76V43.1228C126.206 44.0188 125.427 44.7228 124.424 45.2348C123.443 45.7255 122.355 45.9708 121.16 45.9708C119.795 45.9708 118.568 45.6935 117.48 45.1388C116.392 44.5628 115.528 43.7095 114.888 42.5788C114.27 41.4482 113.96 40.0722 113.96 38.4508V28.1788H116.84V38.0668C116.84 39.7948 117.278 41.1282 118.152 42.0668C119.027 42.9842 120.222 43.4428 121.736 43.4428C123.294 43.4428 124.52 42.9628 125.416 42.0028C126.312 41.0428 126.76 39.6455 126.76 37.8108V28.1788H129.672ZM138.141 30.5788V40.9148C138.141 41.7682 138.322 42.3762 138.685 42.7388C139.048 43.0802 139.677 43.2508 140.573 43.2508H142.717V45.7148H140.093C138.472 45.7148 137.256 45.3415 136.445 44.5948C135.634 43.8482 135.229 42.6215 135.229 40.9148V30.5788H132.957V28.1788H135.229V23.7628H138.141V28.1788H142.717V30.5788H138.141ZM175.865 27.8588C177.23 27.8588 178.446 28.1468 179.513 28.7228C180.579 29.2775 181.422 30.1202 182.041 31.2508C182.659 32.3815 182.969 33.7575 182.969 35.3788V45.7148H180.089V35.7948C180.089 34.0455 179.651 32.7122 178.777 31.7948C177.923 30.8562 176.761 30.3868 175.289 30.3868C173.774 30.3868 172.569 30.8775 171.673 31.8588C170.777 32.8188 170.329 34.2162 170.329 36.0508V45.7148H167.449V35.7948C167.449 34.0455 167.011 32.7122 166.137 31.7948C165.283 30.8562 164.121 30.3868 162.649 30.3868C161.134 30.3868 159.929 30.8775 159.033 31.8588C158.137 32.8188 157.689 34.2162 157.689 36.0508V45.7148H154.777V28.1788H157.689V30.7068C158.265 29.7895 159.033 29.0855 159.993 28.5948C160.974 28.1042 162.051 27.8588 163.225 27.8588C164.697 27.8588 165.998 28.1895 167.129 28.8508C168.259 29.5122 169.102 30.4828 169.657 31.7628C170.147 30.5255 170.958 29.5655 172.089 28.8828C173.219 28.2002 174.478 27.8588 175.865 27.8588ZM203.745 36.2748C203.745 36.8295 203.713 37.4162 203.649 38.0348H189.633C189.74 39.7628 190.327 41.1175 191.393 42.0988C192.481 43.0588 193.793 43.5388 195.329 43.5388C196.588 43.5388 197.633 43.2508 198.465 42.6748C199.319 42.0775 199.916 41.2882 200.257 40.3068H203.393C202.924 41.9922 201.985 43.3682 200.577 44.4348C199.169 45.4802 197.42 46.0028 195.329 46.0028C193.665 46.0028 192.172 45.6295 190.849 44.8828C189.548 44.1362 188.524 43.0802 187.777 41.7148C187.031 40.3282 186.657 38.7282 186.657 36.9148C186.657 35.1015 187.02 33.5122 187.745 32.1468C188.471 30.7815 189.484 29.7362 190.785 29.0108C192.108 28.2642 193.623 27.8908 195.329 27.8908C196.993 27.8908 198.465 28.2535 199.745 28.9788C201.025 29.7042 202.007 30.7068 202.689 31.9868C203.393 33.2455 203.745 34.6748 203.745 36.2748ZM200.737 35.6668C200.737 34.5575 200.492 33.6082 200.001 32.8188C199.511 32.0082 198.839 31.4002 197.985 30.9948C197.153 30.5682 196.225 30.3548 195.201 30.3548C193.729 30.3548 192.471 30.8242 191.425 31.7628C190.401 32.7015 189.815 34.0028 189.665 35.6668H200.737Z" fill="white"/>
</svg>
