<svg width="1057" height="1024" viewBox="0 0 1057 1024" fill="none" xmlns="http://www.w3.org/2000/svg">
<path d="M249.01 744.77C249.01 744.77 262.399 880.365 155.286 1025H135.011C231.106 902.462 242.124 787.122 235.621 744.77H249.01ZM194.686 1H1057.25V1023H186.309C230.27 944.694 304.325 790.59 272.869 661.587C242.035 554.669 149.901 483.39 85.2578 297.162C60.7209 219.214 20.245 137.036 91.3281 0H195.225C195.044 0.333287 194.865 0.667368 194.686 1ZM18.7168 83.3662C18.6806 83.5391 -1.1353 178.399 42.8174 305.843L30.959 311.869C-8.82576 209.821 -1.9404 112.661 6.47559 76.8369L18.7168 83.3662Z" fill="#FFD9C4"/>
</svg>
